<svg width="148" height="31" viewBox="0 0 148 31" fill="none" xmlns="http://www.w3.org/2000/svg">
<path fill-rule="evenodd" clip-rule="evenodd" d="M24.1329 0L30.1661 6.03322V24.1329V30.1661L24.1329 30.1661L18.0997 24.1329V12.0664H24.1329V6.03322H6.03322V0H24.1329ZM6.03322 12.0664V6.03322H0V23.5054L6.03322 30.1661H18.0997V24.1329L12.0664 24.1329V12.0664H6.03322Z" fill="#87B1C5"/>
<path d="M135.057 30.3069C134.258 30.3069 133.507 30.1549 132.804 29.851C132.109 29.5557 131.479 29.1172 130.915 28.5353C130.359 27.9447 129.916 27.1631 129.586 26.1905C129.265 25.2178 129.104 24.1149 129.104 22.8817C129.104 21.6572 129.265 20.5673 129.586 19.612C129.916 18.648 130.359 17.8751 130.915 17.2933C131.479 16.7114 132.109 16.2728 132.804 15.9776C133.507 15.6736 134.258 15.5216 135.057 15.5216C135.917 15.5216 136.716 15.6823 137.454 16.0036C138.201 16.3249 138.818 16.7896 139.304 17.3975H139.356V10.1025H142.561V29.851H139.356V28.4311H139.304C138.818 29.039 138.201 29.5036 137.454 29.8249C136.716 30.1463 135.917 30.3069 135.057 30.3069ZM132.413 22.8817C132.413 24.3233 132.743 25.4914 133.403 26.3859C134.063 27.2717 134.892 27.7146 135.891 27.7146C136.873 27.7146 137.693 27.2674 138.353 26.3729C139.022 25.4784 139.356 24.3146 139.356 22.8817C139.356 21.4661 139.022 20.3198 138.353 19.4427C137.693 18.5569 136.873 18.1139 135.891 18.1139C134.892 18.1139 134.063 18.5569 133.403 19.4427C132.743 20.3198 132.413 21.4661 132.413 22.8817Z" fill="#143347"/>
<path d="M113.993 21.5271C114.254 19.6947 115.005 18.24 116.247 17.1632C117.497 16.0863 119.008 15.5479 120.78 15.5479C121.683 15.5479 122.521 15.6825 123.294 15.9517C124.067 16.2209 124.766 16.6334 125.391 17.1892C126.017 17.745 126.507 18.4962 126.863 19.4428C127.22 20.3894 127.398 21.4924 127.398 22.7516V24.1976H117.367V21.5271H124.089C123.924 20.4155 123.559 19.6339 122.995 19.1823C122.439 18.722 121.701 18.4919 120.78 18.4919C119.938 18.4919 119.212 18.7611 118.605 19.2995C117.997 19.838 117.584 20.5805 117.367 21.5271H113.993ZM113.967 24.1976H117.367C117.567 25.1789 117.971 25.9475 118.579 26.5033C119.186 27.0591 119.92 27.337 120.78 27.337C121.527 27.337 122.139 27.2067 122.617 26.9462C123.094 26.677 123.477 26.2384 123.763 25.6305H127.202C126.759 27.0895 125.973 28.2315 124.844 29.0565C123.724 29.8729 122.369 30.281 120.78 30.281C119 30.281 117.484 29.7382 116.234 28.6527C114.983 27.5585 114.228 26.0734 113.967 24.1976Z" fill="#143347"/>
<path d="M108.014 16.4856C107.918 15.9733 107.758 15.5477 107.532 15.209C107.315 14.8617 107.041 14.6011 106.711 14.4274C106.381 14.2451 106.034 14.1191 105.669 14.0497C105.304 13.9802 104.879 13.9454 104.392 13.9454C103.472 13.9454 102.695 14.1235 102.061 14.4795C101.427 14.8269 101.11 15.3263 101.11 15.9776C101.11 16.49 101.309 16.9286 101.709 17.2933C102.108 17.658 102.625 17.949 103.259 18.1661C103.902 18.3832 104.605 18.5916 105.369 18.7914C106.142 18.9824 106.915 19.2126 107.688 19.4818C108.461 19.751 109.165 20.0767 109.799 20.4588C110.441 20.8322 110.962 21.3533 111.362 22.022C111.761 22.6907 111.961 23.4766 111.961 24.3798C111.961 26.1688 111.284 27.6017 109.929 28.6786C108.574 29.7468 106.698 30.2809 104.301 30.2809C103.32 30.2809 102.399 30.1506 101.54 29.8901C100.689 29.6296 99.9199 29.2431 99.2339 28.7307C98.5565 28.2183 98.0094 27.541 97.5925 26.6986C97.1843 25.8562 96.9585 24.8879 96.9151 23.7936H100.524C100.645 24.9052 101.032 25.7302 101.683 26.2687C102.343 26.8071 103.307 27.0763 104.575 27.0763C105.756 27.0763 106.685 26.8983 107.363 26.5422C108.049 26.1775 108.392 25.6434 108.392 24.94C108.392 24.4884 108.266 24.0932 108.014 23.7545C107.771 23.4072 107.436 23.1293 107.011 22.9208C106.594 22.7037 106.112 22.5083 105.565 22.3346C105.026 22.1609 104.458 21.9959 103.858 21.8396C103.259 21.6833 102.66 21.5139 102.061 21.3316C101.461 21.1492 100.888 20.9191 100.341 20.6412C99.8027 20.3633 99.3207 20.0419 98.8952 19.6772C98.4783 19.3124 98.144 18.8435 97.8921 18.2703C97.649 17.6884 97.5274 17.0328 97.5274 16.3033C97.5274 15.5911 97.6837 14.9051 97.9963 14.2451C98.3177 13.5764 98.7649 12.9858 99.3381 12.4734C99.9113 11.9524 100.632 11.5355 101.501 11.2229C102.378 10.9102 103.333 10.7539 104.366 10.7539C105.678 10.7539 106.824 10.9536 107.805 11.3531C108.795 11.7439 109.612 12.3736 110.254 13.242C110.906 14.1104 111.314 15.1917 111.479 16.4856H108.014Z" fill="#143347"/>
<path d="M90.91 22.3606C90.91 21.1361 90.6582 20.2069 90.1545 19.5729C89.6595 18.939 88.9777 18.622 88.1093 18.622C87.2148 18.622 86.481 18.9433 85.9078 19.586C85.3346 20.2286 85.048 21.1535 85.048 22.3606V29.851H81.8435V10.1025H85.048V18.0358H85.1001C85.5604 17.1673 86.1119 16.5377 86.7545 16.1469C87.3972 15.7474 88.2135 15.5477 89.2035 15.5477C89.7246 15.5477 90.2196 15.6128 90.6886 15.7431C91.1662 15.8647 91.6135 16.0644 92.0303 16.3423C92.4472 16.6202 92.8076 16.9633 93.1115 17.3714C93.4242 17.7796 93.6674 18.2833 93.841 18.8825C94.0234 19.4731 94.1146 20.1331 94.1146 20.8626V29.851H90.91V22.3606Z" fill="#143347"/>
<path d="M72.9723 30.281C71.9996 30.281 71.0877 30.1073 70.2367 29.76C69.3943 29.4126 68.6648 28.9219 68.0482 28.2879C67.4403 27.654 66.9583 26.8724 66.6022 25.9431C66.2548 25.0139 66.0811 23.9935 66.0811 22.8819C66.0811 20.6673 66.7281 18.8914 68.0221 17.554C69.3248 16.2166 70.9748 15.5479 72.9723 15.5479C74.7178 15.5479 76.1768 16.0298 77.3492 16.9938C78.5216 17.9491 79.2685 19.2735 79.5898 20.967H76.281C76.0031 20.0898 75.5993 19.4602 75.0696 19.0781C74.5398 18.6873 73.8407 18.4919 72.9723 18.4919C71.9301 18.4919 71.0704 18.8957 70.393 19.7034C69.7243 20.5023 69.3899 21.5618 69.3899 22.8819C69.3899 24.228 69.7243 25.3092 70.393 26.1255C71.0704 26.9332 71.9301 27.337 72.9723 27.337C73.8581 27.337 74.5615 27.1459 75.0826 26.7638C75.6036 26.373 76.0031 25.7304 76.281 24.8359H79.5898C79.2685 26.5293 78.5216 27.8624 77.3492 28.8351C76.1768 29.799 74.7178 30.281 72.9723 30.281Z" fill="#143347"/>
<path d="M50.9701 21.5271C51.2306 19.6947 51.9818 18.24 53.2237 17.1632C54.4743 16.0863 55.9854 15.5479 57.757 15.5479C58.6602 15.5479 59.4982 15.6825 60.2711 15.9517C61.0441 16.2209 61.7431 16.6334 62.3684 17.1892C62.9937 17.745 63.4844 18.4962 63.8404 19.4428C64.1965 20.3894 64.3745 21.4924 64.3745 22.7516V24.1976H54.344V21.5271H61.0658C60.9008 20.4155 60.536 19.6339 59.9715 19.1823C59.4157 18.722 58.6775 18.4919 57.757 18.4919C56.9146 18.4919 56.1894 18.7611 55.5815 19.2995C54.9736 19.838 54.5611 20.5805 54.344 21.5271H50.9701ZM50.944 24.1976H54.344C54.5437 25.1789 54.9476 25.9475 55.5555 26.5033C56.1634 27.0591 56.8972 27.337 57.757 27.337C58.5038 27.337 59.1161 27.2067 59.5937 26.9462C60.0714 26.677 60.4535 26.2384 60.7401 25.6305H64.1791C63.7362 27.0895 62.9503 28.2315 61.8213 29.0565C60.701 29.8729 59.3462 30.281 57.757 30.281C55.9767 30.281 54.4612 29.7382 53.2107 28.6527C51.9601 27.5585 51.2046 26.0734 50.944 24.1976Z" fill="#143347"/>
<path d="M43.7794 29.8512V14.3755H47.2575V29.8512H43.7794ZM37.9695 14.3755V11.1709H43.7794V14.3755H37.9695ZM47.2575 14.3755V11.1709H53.0674V14.3755H47.2575Z" fill="#143347"/>
<rect x="144.797" y="26.7158" width="3.20267" height="3.20267" fill="#87B1C5"/>
</svg>
